<?xml version="1.0"?>
<svg width="720" height="480" xmlns="http://www.w3.org/2000/svg" xmlns:svg="http://www.w3.org/2000/svg">
 <!-- Created with SVG-edit - http://svg-edit.googlecode.com/ -->
 <g>
  <title>Layer 1</title>
  <path d="m127,211c0.036011,-2.625336 0.249084,-3.502258 0.610657,-4.174667c0.44574,-0.828873 1.021622,-1.425613 1.306671,-2.307999c0.255203,-0.789932 1.11911,-1.120636 1.839844,-1.738998c0.561905,-0.482117 0.640778,-1.625183 1.044159,-2.294342c0.456985,-0.758072 1.051895,-1.336365 1.494171,-2.141159c0.396896,-0.722229 0.57338,-1.749725 0.729828,-2.506836c0.199371,-0.964844 0.824036,-1.605499 0.970169,-2.59317c0.131073,-0.885895 -0.040298,-1.633102 0.429825,-2.606827c0.375793,-0.778305 1.01944,-1.375046 1.522003,-1.993164c0.572876,-0.70459 0.931122,-1.375641 1.53183,-2.142838c0.50914,-0.650208 0.860291,-1.492035 1.541687,-2.020828c0.819946,-0.636337 1.21637,-1.135544 1.674667,-1.826508c0.597198,-0.900375 1.103821,-1.451996 1.804489,-2.152664c0.699341,-0.699341 1.268265,-1.335526 2.100006,-1.489334c0.885529,-0.163757 1.903351,-0.376175 2.278671,-1.110672c0.429962,-0.841461 0.686737,-1.547974 1.421326,-2.195496c0.662216,-0.583725 1.63063,-0.310867 2.414658,-0.789825c0.803375,-0.490753 1.32074,-1.038177 1.985336,-1.619171c0.636459,-0.556381 1.299667,-1.295837 1.900009,-1.895508c0.599655,-0.598999 1.171387,-1.232529 2.099991,-1.395493c0.887344,-0.155716 1.799545,-0.375259 2.216003,-1.204498c0.426483,-0.849213 0.800369,-1.416153 1.684006,-1.825333c0.81163,-0.375839 1.632355,-0.656128 2.315994,-1.258667c0.597641,-0.526733 1.267685,-1.025589 1.96933,-1.517334c0.749405,-0.525223 1.499557,-0.845276 2.229355,-1.398666c0.724976,-0.549759 1.224854,-1.295319 2.085327,-1.716003c0.853821,-0.41745 1.501129,-0.787369 2.199982,-1.483994c0.600983,-0.59903 1.134338,-1.338989 2,-1.564011c0.871948,-0.226654 1.854126,-0.27153 2.300018,-0.797668c0.692047,-0.81665 0.831238,-1.789352 1.699982,-2.166321c0.828278,-0.35939 2.022034,0.154266 2.478668,-0.514679c0.490265,-0.718201 0.641571,-1.533752 1.621338,-1.557327c0.804291,-0.019363 1.856689,-0.15329 2.479156,-0.520828c0.835114,-0.493088 1.247772,-1.341507 1.907501,-1.563171c0.946808,-0.3181 1.695435,-0.472198 2.592529,-0.936829c0.803589,-0.416214 1.121582,-1.394257 1.820831,-1.869339c0.813599,-0.55278 1.570374,-0.883316 2.357147,-1.057159c0.931519,-0.205841 1.735352,-0.358124 2.542847,-0.627335c0.991516,-0.330582 1.815491,-0.350128 2.799988,-0.59201c0.806641,-0.198181 1.490723,-0.662628 2.479187,-0.8125c0.900391,-0.13652 1.394714,-0.746521 2.13147,-1.010162c0.857025,-0.306656 1.874695,-0.010605 2.600006,-0.010666c0.989166,-0.000092 1.816498,0.144455 2.767853,-0.221329c0.778442,-0.299301 1.542145,-0.76825 2.506836,-0.778671c0.725281,-0.007828 1.717285,0.047363 2.514648,-0.020828c1.006897,-0.086121 1.785889,-0.446762 2.600006,-0.695175c0.78717,-0.240189 1.742828,-0.281738 2.642822,-0.283997c0.957184,-0.002396 1.857178,0 2.757172,0c0.757172,0 1.657166,0.000504 2.40451,0c0.995483,-0.000671 1.812439,0.039368 2.795502,-0.221329c0.818848,-0.217148 1.79364,-0.659637 2.599976,-0.742676c0.79657,-0.082016 1.800018,-0.035995 2.600006,-0.035995c0.998688,0 1.764008,0 2.714691,0c0.985321,0 1.885315,0 2.685303,0c0.900024,0 1.800018,0 2.700012,0c0.899994,0 1.800018,0 2.701355,0c0.68396,0 1.6651,-0.158264 2.631989,0.166672c0.814301,0.273666 1.576782,0.815323 2.488007,0.833328c0.678528,0.013397 1.657501,0 2.488495,0c0.95816,0 1.690247,-0.014954 2.856842,0c0.812683,0.010422 1.673615,0.181702 2.333313,0.520828c1.011169,0.519836 1.524475,1.218155 2.399994,1.443176c0.876923,0.225372 1.766663,0.202667 2.600006,0.535995c0.833344,0.333328 1.722473,0.313004 2.600006,0.535995c0.862305,0.219116 1.55896,0.69986 2.399994,1.130676c0.664337,0.340302 1.197418,1.299088 2,1.666656c0.742737,0.340149 1.728271,-0.024109 2.600006,0.202667c0.856384,0.222794 1.020752,1.452835 1.757141,1.906845c0.719177,0.443375 1.699768,0.346863 2.342865,0.704498c0.853119,0.474426 1.682068,0.808456 2.498657,1.268661c0.702911,0.396118 0.904358,1.322647 1.602661,1.79866c0.749329,0.510788 1.438141,1.007462 2,1.454666c0.715942,0.569824 0.939453,1.393265 1.598663,2.194672c0.645355,0.784531 1.229553,1.251831 1.800018,2.118668c0.422363,0.64183 1.002625,1.344482 1.685303,1.600006c0.931152,0.348526 1.778931,0.918655 2.162872,1.617325c0.385376,0.70134 1.052948,1.39888 1.651825,2c0.596619,0.598877 1.191071,1.398407 1.299988,2.300003c0.096497,0.798737 0.42688,1.543076 0.97467,2.389328c0.409576,0.632706 1.229553,1.177292 1.625336,1.796005c0.505219,0.789749 1.043884,1.509689 1.399994,2.314667c0.353729,0.799545 0.84259,1.610504 1.084015,2.38533c0.297485,0.954788 0.7453,1.606674 0.895172,2.593842c0.136688,0.900391 0.646973,1.349152 1.316315,1.877991c0.741119,0.585556 0.772858,1.533783 1.057159,2.300003c0.279419,0.753159 0.593933,1.739059 0.636658,2.506836c0.060242,1.081757 0.169434,2.005844 0.436005,2.661331c0.282318,0.694138 0.553619,1.788605 1,2.574661c0.411926,0.725327 0.635284,1.494171 1,2.425339c0.273315,0.697723 0.496063,1.692261 0.927338,2.47467c0.409882,0.743652 0.608917,1.458145 0.651855,2.357162c0.045166,0.946548 0.300964,1.735336 0.570129,2.542831c0.330475,0.991348 0.414917,1.779007 0.425354,2.778503c0.008545,0.820114 0.057159,1.721497 0.5,2.5215c0.442841,0.800003 0.403625,1.723267 0.666656,2.666672c0.190094,0.681625 0.669128,1.32489 0.812531,2.333328c0.138519,0.974411 0.020813,1.674667 0.020813,2.742828c0,0.857178 0,1.757172 0,2.557175c0,0.899994 -0.005341,1.800018 0,2.699997c0.005341,0.90004 0.497711,1.720016 0.833344,2.5c0.306061,0.711288 0.166656,1.652664 0.166656,2.516006c0,0.963165 -0.081726,1.888092 0.004517,2.788498c0.083588,0.873291 0.578003,1.667053 0.828827,2.528824c0.245148,0.842331 0.166656,1.766678 0.166656,2.577332c0,0.910675 0.000092,1.764008 0,2.70401c-0.000092,0.985168 -0.506989,1.496063 -0.942841,2.246994c-0.405121,0.697983 0.081879,1.685272 -0.278503,2.616837c-0.300873,0.777832 -0.765991,1.521347 -0.778656,2.421494c-0.012665,0.899933 -0.268677,1.814743 -0.801331,2.400009c-0.570618,0.626953 -1.07843,1.521301 -1.198669,2.220825c-0.168243,0.978897 -0.386536,1.795624 -0.801331,2.493835c-0.527618,0.888107 -1.136505,1.578705 -1.197327,2.370667c-0.072784,0.947876 0.043945,1.717239 -0.005859,2.705673c-0.042358,0.841156 -0.76001,1.368301 -1.495483,1.929825c-0.662842,0.506058 -1.220306,1.213638 -1.447327,2.131821c-0.209778,0.848572 -0.640442,1.633392 -0.931152,2.447357c-0.305481,0.855255 -0.241394,1.679871 -0.696198,2.5c-0.433716,0.782227 -0.612152,1.731049 -1.425323,2.233337c-0.76358,0.47168 -1.220612,1.133331 -1.574677,1.766663c-0.481476,0.861267 -0.290009,1.86618 -0.710663,2.600006c-0.393555,0.686554 -1.185394,1.305023 -1.661987,2.09549c-0.398315,0.660614 -0.722046,1.360077 -1.136658,2.136505c-0.411926,0.771362 -1.341797,0.977844 -2.015839,1.667999c-0.56543,0.578918 -0.837524,1.652679 -1.604675,1.895508c-0.820343,0.259644 -1.105865,0.736938 -1.331512,1.604492c-0.225098,0.865631 -0.981293,1.608337 -1.663971,2.042816c-0.732147,0.465942 -1.871429,0.296997 -2.300018,0.878021c-0.576874,0.782074 -1.151489,1.229919 -2,1.645813c-0.762482,0.373718 -1.591827,0.788788 -1.951813,1.538666c-0.328278,0.683807 -0.933441,1.175415 -2.048187,1.461334c-0.604309,0.154999 -1.491028,0.653168 -2.364014,0.797333c-0.924347,0.152649 -1.853088,0.302124 -2.435974,0.837341c-0.618835,0.568176 -1.453644,0.987671 -2.300018,1.420013c-0.655304,0.334717 -1.438171,0.725372 -2.384003,1.062653c-0.705811,0.251709 -1.682159,0.493622 -2.515991,0.88266c-0.657532,0.306793 -1.532043,0.768127 -2.299988,1.186005c-0.840942,0.457581 -1.5,0.644257 -2.457184,0.647339c-0.895477,0.002869 -1.786346,0.023468 -2.606842,0.425323c-0.869934,0.426086 -1.635986,0.574677 -2.435974,0.574677c-0.899994,0 -1.902588,-0.398193 -2.764008,0.036011c-0.698883,0.352264 -1.197662,0.961731 -2.088654,0.963989c-0.863342,0.002167 -1.826538,0 -2.758026,0c-0.910645,0 -1.764008,0 -2.70401,0c-0.885315,0 -1.645447,-0.068024 -2.533478,0.004486c-1.027924,0.083923 -1.491638,0.832001 -2.37265,0.97467c-0.945618,0.153107 -1.778015,0.002808 -2.679169,0.020844c-0.900543,0.018005 -1.610321,0.618134 -2.500031,0.914673c-0.857788,0.285919 -1.685303,0.085327 -2.625305,0.085327c-0.690674,0 -1.783417,-0.167297 -2.674683,0.020844c-0.847412,0.178864 -1.592377,0.917023 -2.299988,0.977814c-0.953674,0.081909 -1.852661,0.001343 -2.716003,0.001343c-0.963196,0 -1.79303,0 -2.817322,0c-0.672028,0 -1.416016,0 -2.523865,0c-0.890991,0 -1.795471,0 -2.658813,0c-0.869324,0 -1.817322,0 -2.73468,0c-0.743988,0 -1.778656,0 -2.546661,0c-0.959839,0 -1.855316,0 -2.718658,0c-0.963196,0 -1.783997,0 -2.685364,0c-0.965302,0 -1.798645,0 -2.777161,0c-0.71698,0 -1.62149,0 -2.521484,0c-0.910675,0 -1.844971,0.163086 -2.638672,-0.036011c-0.872284,-0.218811 -1.574249,-0.93158 -2.270325,-0.959503c-0.988892,-0.039673 -1.755005,-0.004395 -2.833832,-0.004486c-0.85733,-0.000092 -1.65152,-0.06134 -2.582489,-0.425323c-0.697906,-0.272858 -1.653717,-0.561951 -2.574677,-0.574677c-0.895447,-0.01239 -1.40686,-0.670502 -2.12085,-0.979156c-0.80722,-0.348969 -1.779144,-0.020782 -2.679169,-0.020844c-0.900146,-0.000092 -1.694336,-0.06134 -2.625305,-0.425323c-0.697906,-0.272858 -1.724243,-0.443787 -2.47467,-0.931854c-0.796722,-0.518158 -1.279388,-1.249725 -2.100006,-1.617493c-0.783844,-0.351288 -1.471161,-0.800598 -2.436005,-1c-0.757111,-0.156464 -1.77124,-0.365967 -2.364014,-0.635986c-1.013,-0.461456 -1.803558,-0.849792 -2.633331,-1.389343c-0.55899,-0.363495 -1.523712,-0.763763 -2.145813,-1.020844c-0.935425,-0.386536 -0.880737,-1.46109 -1.5625,-1.958313c-0.800537,-0.583862 -1.661514,-0.587494 -2.437012,-1.12085c-0.673508,-0.463226 -1.483337,-1.143677 -2.195999,-1.463989c-0.915512,-0.411499 -1.79541,-0.650574 -2.425323,-1.010681c-0.864197,-0.494049 -1.658432,-0.86496 -2.285339,-1.141327c-0.88269,-0.38916 -1.799652,-0.547974 -2.281326,-1.283997c-0.420776,-0.642944 -1.3237,-1.18924 -2.008011,-1.600006c-0.811569,-0.487152 -1.412903,-0.967438 -2.236008,-1.385315c-0.908722,-0.461334 -1.422836,-0.867493 -2.105316,-1.532013c-0.735779,-0.716431 -1.282623,-1.281403 -1.984009,-1.982666c-0.599945,-0.599854 -1.330444,-0.929779 -2.063995,-1.52533c-0.649582,-0.527374 -0.906311,-1.360931 -1.436005,-2.141327c-0.535767,-0.789368 -0.957428,-1.632141 -1.800003,-1.830688c-0.822433,-0.193787 -1.003708,-0.83847 -1.257156,-1.702667c-0.257339,-0.877411 -0.721283,-1.757263 -1.37883,-2.274658c-0.648163,-0.51001 -1.454849,-0.748627 -2.043182,-1.52533c-0.558289,-0.737061 -0.438705,-1.703766 -0.520996,-2.600006c-0.083679,-0.911438 -0.654831,-1.465088 -0.974503,-2.310669c-0.333649,-0.882507 -0.598755,-1.563995 -0.903992,-2.567993c-0.230774,-0.759018 -0.516754,-1.663025 -0.768677,-2.425827c-0.323212,-0.978775 -0.333801,-1.795624 -0.352829,-2.795166c-0.01445,-0.758804 -0.57193,-1.414612 -0.963821,-2.236343c-0.374268,-0.78476 -0.20462,-1.729919 -0.461349,-2.399994c-0.292892,-0.764481 -0.41539,-1.781815 -0.658661,-2.678665c-0.239624,-0.883438 -0.872101,-1.682846 -0.914658,-2.370667c-0.058716,-0.948853 -0.001343,-1.716003 -0.001343,-2.710175c0,-0.919159 0.000076,-1.883667 0,-2.709c-0.000092,-1.016998 0.061203,-1.732101 -0.166656,-2.695496c-0.191193,-0.808334 -0.668549,-1.489822 -0.8125,-2.479172c-0.132629,-0.911453 -0.020844,-1.820831 -0.020844,-2.722168c0,-0.965332 0.217896,-1.892838 -0.283997,-2.629333c-0.474915,-0.69693 -0.716003,-1.369324 -0.716003,-2.269333c0,-0.899994 0,-1.699997 0,-2.599991c0,-0.936005 0,-1.783997 0,-2.647339c0,-1.016663 0,-1.852661 0,-2.75267c0,-0.899994 0.085342,-1.699997 0.610657,-2.463989l0.778687,-0.421341" id="svg_8" stroke-width="5" stroke="#000000" fill="none"/>
  <path d="m304,202c1,0 1.85376,-0.011444 2.600006,-0.610672c0.660217,-0.530136 1.158966,-1.069336 2.233337,-1.556c0.778107,-0.352463 1.248749,-0.492966 2.249969,-0.875c0.534454,-0.203918 1.095428,-0.389084 2.750031,-1.125c0.549316,-0.244324 1.08252,-0.506119 2.098663,-1.047989c0.487183,-0.259811 1.388092,-0.782349 2.567993,-1.452011c0.643219,-0.365067 1.438477,-0.830276 2.181335,-1.045334c0.982849,-0.284531 1.823578,-0.249313 2.634644,-0.371994c1.00708,-0.152313 1.640625,-0.495361 2.684021,-0.749329c0.787598,-0.191711 1.601135,-0.126465 2.617981,-0.175674c0.727905,-0.035217 2.049805,-0.320145 2.467529,-0.43367c0.932251,-0.253357 1.425354,-0.411819 2.449158,-0.706665c0.511292,-0.147247 1.960876,-0.542404 2.809326,-0.679993c0.744751,-0.120773 1.742493,-0.161606 2.656006,-0.17067c0.899994,-0.008942 1.80957,-0.02533 2.399994,-0.17067c1.227448,-0.302139 1.785767,-0.710083 2.700012,-1.123993c0.887177,-0.401657 1.793121,-0.613586 2.379181,-0.663666c0.833344,-0.071213 2.06366,-0.041672 2.710144,-0.041672c1.010498,0 1.97467,0 2.926666,0c0.768005,0 1.720001,0 2.485321,0c0.994202,0 1.741516,0 2.762665,0c0.945038,0 1.969513,0.011475 2.645844,-0.004501c0.77594,-0.018326 1.829407,-0.140884 2.537506,-0.34816c0.913727,-0.267456 1.873016,-0.540039 2.709991,-0.622009c0.62439,-0.061142 1.316895,-0.091736 2.486328,-0.246658c0.890533,-0.117966 1.880951,-0.281647 2.421692,-0.353333c0.57193,-0.075821 2.501007,-0.263855 3.219482,-0.303833c0.746887,-0.041565 1.512268,-0.067307 2.284515,-0.08551c0.768097,-0.018112 1.521332,-0.026733 2.248505,-0.031494c0.690155,-0.004517 2.431824,-0.004501 3.286499,-0.004501c0.670654,0 1.962311,0 2.748322,0c0.821991,0 1.880676,0 2.590179,0c0.852661,0 1.859833,0 2.49881,0c0.729004,0 1.926331,0 2.609009,0c1.044006,0 2.015991,0 2.830505,0c0.852661,0 1.779968,0.0336 2.573486,-0.085327c1.005707,-0.150726 1.619415,-0.348572 2.587341,-0.562012c1.092102,-0.240829 1.878693,-0.342239 3.024658,-0.352661c0.669312,-0.006088 1.434662,0 2.232025,0c0.76532,0 1.961304,0 2.840485,0c0.913513,0 1.776825,0 2.760834,0c0.821503,0 1.710663,0 2.699829,0c0.779327,0 1.778992,0 2.461517,0c1.108002,0 1.859497,0 2.655975,0c1,0 1.703522,0.001358 3.016022,0c0.639984,-0.000671 1.360352,-0.000931 2.160004,-0.035995c0.880524,-0.03862 1.840942,-0.122742 2.871979,-0.248001c0.531525,-0.064575 1.592926,-0.216705 2.615021,-0.363342c0.480927,-0.069 1.733948,-0.241364 2.750305,-0.327332c0.678162,-0.057358 1.461792,-0.104004 2.436005,-0.192001c1.224609,-0.110626 1.911011,-0.186096 2.632019,-0.258667c0.742981,-0.074768 1.49588,-0.150665 2.246979,-0.222c0.736877,-0.069977 2.120422,-0.194901 3.325012,-0.267334c0.534302,-0.03212 1.483368,-0.071259 2.292511,-0.080826c1.293884,-0.015305 2.0755,-0.004501 2.785004,-0.004501c1.234497,0 2.030975,0 2.782471,0c0.959503,0 1.937317,0.027878 2.680023,-0.021332c0.896851,-0.059418 1.290802,-0.133759 2.838654,-0.421341c0.639893,-0.118896 1.319458,-0.262131 2.028015,-0.40799c0.722778,-0.148788 1.443787,-0.306244 2.834656,-0.581345c1.220062,-0.241318 1.733429,-0.3638 2.978668,-0.495987c0.676758,-0.071838 1.34137,-0.065552 2.495514,-0.072342c0.947021,-0.005569 1.469208,-0.0065 2.592499,-0.071671c0.596985,-0.034637 1.2164,-0.067062 2.487976,-0.261322c1.329437,-0.203094 2.00885,-0.375 2.712006,-0.528c0.72583,-0.157944 1.475281,-0.32753 2.254517,-0.490509c0.808716,-0.169144 2.53241,-0.488403 3.45166,-0.626495c0.946136,-0.14212 1.911774,-0.264725 2.884491,-0.375c0.967651,-0.109695 1.921021,-0.203415 2.848511,-0.285004c0.889893,-0.078278 2.51535,-0.197739 3.231659,-0.240158c0.653015,-0.038681 1.250244,-0.066711 1.798492,-0.08551c0.506104,-0.017349 0.977325,-0.029526 1.842682,-0.034668c1.20929,-0.007187 2.009338,-0.001328 2.809326,-0.001328c0.799988,0 2,0 2.799988,0c0.800018,0 1.600006,-0.000061 2.400024,0c1.199982,0.000092 2.000275,-0.005493 2.799988,0.020828c0.800385,0.026337 2.001923,0.133469 2.798676,0.263168c0.792755,0.129059 1.562347,0.307602 2.315979,0.432007c1.39386,0.230103 2.038269,0.261826 2.923676,0.279495c1.039856,0.020752 1.920044,0.004501 2.940491,0.004501c0.682556,0 1.790527,0 2.541992,0c0.796509,0 1.795227,0 2.704529,0c0.941284,0 1.731812,0 2.585327,0c0.590637,0 1.79248,-0.014252 2.731018,0.020828c0.673157,0.025162 1.794128,0.129654 2.631653,0.267166c0.923096,0.151566 1.414001,0.258972 2.450012,0.530838c0.552185,0.144913 1.712463,0.507385 2.318848,0.723831c1.254944,0.448013 1.877502,0.705353 2.4953,0.957336c0.604919,0.246735 1.740234,0.728149 2.729126,1.166672c0.810791,0.359512 1.463867,0.687866 2.325195,1.024323c1.137939,0.444504 1.821167,0.613876 2.549805,0.809006c0.765991,0.205124 1.958618,0.499039 2.757019,0.699997c0.790955,0.199051 1.566833,0.394562 2.315979,0.600006c1.065857,0.292282 2.042114,0.590134 2.638733,0.800003c1.086426,0.382156 1.794067,0.690384 2.642151,1.099991c0.809326,0.390884 1.637573,0.821671 2.375122,1.100006c0.862976,0.325638 1.538513,0.502533 2.250244,0.699997c1.095398,0.303909 2.160522,0.589783 2.812988,0.800003c0.888062,0.286148 1.851501,0.67012 2.504822,1.099991c0.854187,0.562073 1.512268,0.987228 2.065857,1.357178c1.026367,0.685913 1.610291,1.270584 2.052612,1.647324c0.951538,0.81044 1.487,1.203522 2.317505,1.759506c0.536011,0.35881 1.551147,0.937241 2.225342,1.356827c0.694458,0.432159 1.426697,1.015778 2.225342,1.729843c0.553101,0.494492 1.067932,1.010132 1.853149,1.606491c0.667114,0.506683 1.545532,0.993164 2.32019,1.626831c0.601196,0.491745 1.046265,1.110321 1.848633,1.754333c0.854004,0.685455 1.597351,0.687134 2.354004,0.845673c1.014526,0.21257 1.831177,0.633942 2.599182,1.238174c0.661499,0.520432 1.11438,1.026184 1.655457,1.620499c0.652344,0.716492 1.395813,1.592194 1.802002,2.063492c0.417786,0.484695 1.263611,1.458694 1.684082,1.925995c0.403564,0.448624 1.468811,1.589828 2.086426,2.082001c0.712769,0.567871 1.564575,1.000351 2.36084,1.375168c0.719299,0.338547 1.756287,0.485992 2.510681,0.967834c0.56366,0.359985 1.218262,1.166245 1.866638,1.809509c0.677429,0.672028 1.060547,1.067261 2,1.833328c0.504578,0.411423 1.334229,0.92865 1.978699,1.514664c0.745667,0.678101 1.175964,1.661514 1.559998,2.138c0.571716,0.709259 0.903931,1.635818 1.58136,2.264664c0.713379,0.662231 1.381958,0.784866 2.117859,1.491669c0.605042,0.581177 1.195496,1.19101 1.795471,1.791c0.799988,0.799988 1.395447,1.395508 1.963989,1.964005c0.669373,0.669327 1.249878,1.20343 1.720032,1.890671c0.657104,0.960663 0.939331,1.622406 1.290649,2.269333c0.339355,0.625046 1.015442,1.571274 1.463623,2.362488c0.472778,0.834457 1.148071,1.352417 1.661682,2.027847c0.485229,0.638062 0.884521,1.694931 1.220825,2.28566c0.347412,0.610077 1.12207,1.60463 1.65387,2.164001c0.646973,0.680634 1.304443,1.31517 1.925293,1.936005c0.600037,0.599991 1.262512,1.166138 1.700012,1.870667c0.471252,0.75882 0.692017,1.553207 1,2.346664c0.388672,1.001282 0.76709,1.635483 1.033325,2.682663c0.197144,0.775406 0.017151,1.85556 0.202698,2.589325c0.220459,0.871857 0.752991,1.664337 1.185303,2.510681c0.334717,0.655304 0.760315,1.523376 1.204041,2.299988c0.413696,0.72403 0.574646,1.600006 0.574646,2.399994c0,0.900024 0.030396,1.802734 0.425354,2.610657c0.446777,0.913818 0.564209,1.589203 0.574646,2.567841c0.008728,0.820129 0,1.721527 0,2.621521c0,0.899994 0,1.799988 0,2.704498c0,1.016815 0,1.695496 0,2.673981c0,0.82019 0.036743,1.783905 -0.520813,2.521515c-0.587585,0.777313 -1.324463,1.26651 -1.468506,2.100006c-0.15686,0.90744 0.059875,1.891388 -0.046692,2.574646c-0.149841,0.960876 -0.764709,1.624634 -1.463989,2.325348c-0.599304,0.600525 -1.152527,1.195709 -1.520813,2.041656c-0.433655,0.996094 -0.654968,1.491486 -1.2005,2.207672c-0.729126,0.957153 -1.390137,1.420258 -1.942688,1.865326c-0.839905,0.676483 -1.324158,1.401337 -1.634705,1.986664c-0.530273,0.999634 -0.891357,1.683685 -1.257263,2.169342c-0.676147,0.897369 -1.306763,1.543274 -1.985657,2.250183c-0.352173,0.366638 -1.076721,1.096832 -1.791748,1.8125c-0.683655,0.684296 -1.351929,1.35199 -1.6875,1.6875c-0.688965,0.688995 -1.812439,1.8125 -2.221436,2.221497c-0.423035,0.423004 -1.286987,1.286987 -1.716003,1.716003c-0.419006,0.418976 -1.2052,1.200806 -2.155823,2.155975c-0.462769,0.464935 -1.000977,0.998077 -1.707153,1.928192c-0.520386,0.685364 -0.720093,1.30661 -1.657227,2.09317c-0.546326,0.458557 -1.409302,0.832367 -2.18811,1.364319c-0.641052,0.437805 -1.387451,0.850616 -2.08075,1.648163c-0.536011,0.616608 -1.281006,1.054962 -2.042786,1.399994c-0.776855,0.351868 -1.27948,1.165833 -1.834839,1.514343c-0.809937,0.50824 -1.960571,1.200653 -2.409668,1.488159c-0.471985,0.302124 -1.443237,0.93045 -1.927979,1.237335c-0.913696,0.578369 -2.023254,1.241302 -2.789368,1.600006c-0.591675,0.277039 -1.516357,0.769958 -2.110474,1.1745c-0.663086,0.451477 -1.32428,0.955017 -2.304138,1.604156c-0.813538,0.53891 -1.550842,0.943146 -2.016052,1.216003c-1.007507,0.590912 -1.814514,1.121796 -2.364685,1.464661c-1.026001,0.639496 -1.713684,1.022369 -2.348145,1.348175c-0.999939,0.513489 -1.604492,0.804504 -2.604492,1.304504c-0.799988,0.399994 -1.399963,0.700012 -2.399963,1.200012c-0.600037,0.299988 -1.596313,0.807617 -2.195496,1.09549c-0.742859,0.356842 -1.811401,0.654602 -2.459229,0.87384c-1.017334,0.34433 -1.618774,0.686981 -2.269348,0.97998c-1.171448,0.527557 -2.034607,0.79007 -2.648254,1.070343c-0.882507,0.403046 -1.650391,0.915527 -2.09552,1.195496c-0.955933,0.601135 -1.439636,0.922424 -2.397522,1.53418c-0.866333,0.553314 -1.571655,1.034851 -2.451294,1.467316c-0.663208,0.32605 -1.702026,0.472046 -2.540527,0.693176c-0.986511,0.260162 -1.500916,0.598389 -2.353516,1.0755c-0.591309,0.330872 -1.78064,0.94693 -2.378662,1.167999c-0.844055,0.312012 -1.889221,0.524933 -2.789795,0.646667c-0.619568,0.08374 -1.628174,0.361694 -2.292908,0.610657c-1.058655,0.396545 -1.695618,0.590668 -2.727966,0.889343c-0.694458,0.200897 -1.669678,0.491791 -2.485657,0.795502c-0.908752,0.338226 -1.715271,0.577332 -2.514343,0.704498c-1.001221,0.159332 -1.805908,0.423279 -2.599976,0.801331c-0.807617,0.384491 -1.61969,0.827332 -2.56665,1.032013c-0.776306,0.167786 -1.61969,0.122314 -2.666748,0.333313c-0.729736,0.147064 -1.430176,0.475372 -2.499939,1c-0.638733,0.313232 -1.33075,0.667023 -2.088013,0.972015c-0.773682,0.311615 -1.975281,0.639435 -2.77417,0.751495c-0.781067,0.109558 -1.55249,0.117737 -2.637878,0.276489c-1.015625,0.14856 -1.640503,0.357422 -2.565308,0.549347c-0.896973,0.186127 -1.812622,0.250854 -2.437317,0.309326c-1.332306,0.124695 -2.051178,0.251129 -2.799988,0.410675c-0.776703,0.165466 -1.564911,0.367096 -2.763855,0.663818c-0.79538,0.196838 -1.576324,0.393921 -2.342987,0.542999c-1.08667,0.211304 -1.780243,0.252075 -2.819672,0.398834c-0.764313,0.10791 -2.10611,0.452301 -2.622681,0.622345c-0.551666,0.18158 -1.70578,0.611176 -2.293976,0.835999c-0.583801,0.223175 -1.691132,0.672546 -2.6875,1c-0.80307,0.263916 -1.769348,0.464844 -2.597351,0.496002c-0.878723,0.033051 -1.559326,0.003998 -2.319336,0.003998c-0.839996,0 -2.25,-0.000977 -2.75882,0.000153c-1.049683,0.002319 -2.095551,0.014984 -2.599182,0.035858c-0.93515,0.038727 -2.06192,0.152008 -3.016998,0.463989c-0.598145,0.195374 -1.597107,0.422302 -2.249664,0.47467c-1.104706,0.088684 -2.293793,0.180328 -3.09198,0.309326c-0.802002,0.129639 -1.598022,0.302368 -2.400024,0.432007c-0.798187,0.128998 -1.597748,0.218262 -2.779144,0.263153c-0.763306,0.029022 -1.854187,0.020844 -2.532837,0.020844c-0.925507,0 -1.716003,0 -2.82666,0c-0.828003,0 -1.661346,0 -2.64035,0c-0.718323,0 -1.785004,0 -2.696991,0c-0.64801,0 -1.824005,0 -2.626678,0c-0.863983,0 -1.738983,0 -2.384003,0c-1.001312,0 -1.875824,0 -2.532166,0c-1.114502,0 -1.946503,0 -2.810486,0c-0.847992,0 -1.632019,0 -2.830658,0c-0.879181,0 -1.806183,0.000061 -2.658844,0c-1.123993,-0.000092 -1.79129,0.004974 -2.502014,-0.020844c-0.731415,-0.026581 -2.16037,-0.186798 -2.817505,-0.331818c-0.919403,-0.202911 -1.464111,-0.433594 -2.708984,-0.590179c-0.674286,-0.084808 -1.873993,-0.057159 -2.678009,-0.057159c-0.821991,0 -1.852997,0 -2.527985,0c-1.080017,0 -1.90802,0 -2.78952,0c-0.718475,0 -1.509125,0.017853 -2.77182,-0.001343c-0.664703,-0.010101 -1.688232,-0.156433 -2.496002,-0.423981c-0.648895,-0.214905 -1.60791,-0.482269 -2.403992,-0.538666c-1.014038,-0.071838 -1.980011,-0.036011 -2.753326,-0.036011c-1.037354,0 -1.781647,0.026123 -2.889191,-0.000153c-0.758118,-0.017975 -1.619537,-0.301819 -2.317474,-0.574524c-0.93222,-0.364258 -1.710114,-0.395874 -2.682678,-0.436005c-0.662567,-0.027344 -1.787903,-0.198822 -2.447998,-0.346497c-1.048431,-0.234528 -1.734436,-0.421143 -2.651672,-0.742645c-1.010498,-0.354187 -1.630219,-0.663757 -2.643005,-0.847504c-0.793945,-0.144043 -1.798706,-0.348816 -2.44165,-0.552673c-0.724762,-0.229797 -1.925964,-0.420563 -2.609009,-0.47467c-0.698303,-0.055328 -2.02243,-0.165314 -2.843994,-0.377991c-0.762787,-0.197449 -1.837036,-0.494568 -2.473328,-0.563324c-0.681244,-0.073608 -1.734131,-0.085083 -2.698669,-0.250671c-0.827759,-0.14212 -1.705994,-0.563141 -2.732025,-0.748016c-0.756775,-0.136353 -1.718658,-0.084839 -2.411163,-0.085327c-0.95816,-0.000671 -1.716431,0.119537 -2.856812,-0.166656c-0.698395,-0.175262 -1.656403,-0.705933 -2.395844,-0.854187c-0.710724,-0.142487 -1.583801,-0.414276 -2.620178,-0.840485c-0.381012,-0.156677 -1.170288,-0.527802 -2.483978,-0.972015c-0.908966,-0.307373 -1.383698,-0.418945 -2.333344,-0.645813c-0.945129,-0.225769 -1.41745,-0.312897 -2.778503,-0.62085c-0.865295,-0.19577 -1.70105,-0.398438 -2.516998,-0.600006c-1.205048,-0.297699 -1.604919,-0.397034 -2.395477,-0.599976c-0.768066,-0.197144 -1.846039,-0.477173 -2.766357,-0.800018c-0.799164,-0.280334 -1.538513,-0.628082 -2.685181,-0.999817c-0.65332,-0.211792 -1.332184,-0.398529 -2.304138,-0.614838c-0.993164,-0.221008 -1.826965,-0.408081 -2.653351,-0.860016c-0.780609,-0.42688 -1.724335,-0.346832 -2.56665,-0.59198c-0.861786,-0.250824 -1.672211,-0.645081 -2.458679,-0.858673c-0.865417,-0.235046 -1.528809,-0.612396 -2.490662,-0.890656c-0.755188,-0.218475 -1.723267,-0.513275 -2.485321,-0.885345c-0.802155,-0.391632 -1.597626,-0.800781 -2.398682,-1.198669c-0.809631,-0.40213 -1.448761,-0.720978 -2.421173,-1.099823c-0.787048,-0.30661 -1.551849,-0.620026 -2.608154,-0.81485c-0.759766,-0.140137 -1.729126,-0.041718 -2.618835,-0.089813c-0.785522,-0.04245 -1.387238,-0.781158 -2.066193,-1.295502c-0.638916,-0.484039 -1.670868,-0.928284 -2.449646,-1.264008c-0.802338,-0.345856 -1.548645,-0.45694 -2.600159,-0.878845c-0.608093,-0.243988 -1.258026,-0.575195 -1.934998,-0.908997c-1.260254,-0.621429 -2.033539,-0.985077 -2.634674,-1.343658c-0.94397,-0.56308 -1.452057,-1.053375 -2.435486,-1.504517c-0.735474,-0.337372 -1.292084,-0.476288 -2.309174,-0.899994c-0.909729,-0.378967 -1.513733,-0.713104 -2.516998,-1.195496c-0.742706,-0.357117 -1.674835,-0.57135 -2.571167,-0.871155c-0.71463,-0.239044 -1.372009,-0.684296 -2.166656,-1.333344c-0.652954,-0.533264 -1.327881,-1.186829 -1.6875,-1.520844c-0.730713,-0.678619 -1.808899,-1.650146 -2.157349,-1.936005c-0.649048,-0.532471 -1.543671,-1.179688 -2.049835,-1.555145c-0.975494,-0.723602 -1.564697,-1.257446 -2.31485,-1.809326c-0.70694,-0.520111 -1.231812,-0.870667 -2.290497,-1.512024c-0.702576,-0.425629 -1.381989,-0.754913 -2.166656,-1.333313c-0.626648,-0.461914 -1.21875,-1.064819 -2.166656,-1.833344c-0.505707,-0.409973 -1.333344,-0.929626 -1.978668,-1.514679c-0.744324,-0.674744 -1.16925,-1.512207 -1.875488,-1.985321c-0.792633,-0.530945 -1.364502,-0.899689 -2.145844,-1.666656c-0.488251,-0.479248 -1.162109,-1.154846 -1.664032,-1.946686c-0.493835,-0.779144 -1.297302,-1.075317 -1.869293,-1.591156c-0.727234,-0.655792 -0.981476,-1.527832 -1.584015,-2.211487c-0.526733,-0.597656 -1.124878,-1.211334 -1.549347,-2.084015c-0.320831,-0.659668 -0.648285,-1.551605 -1.466644,-1.947327c-0.86438,-0.417969 -1.532593,-0.825348 -1.695496,-1.752686c-0.155914,-0.887299 -0.44873,-1.692291 -1.10434,-2.399994c-0.549957,-0.593628 -0.842621,-1.439056 -1.121674,-2.221313c-0.249237,-0.698639 -0.935425,-1.617737 -1.342499,-2.268005c-0.482208,-0.770264 -0.720001,-1.610687 -1.269348,-2.410675l-0.165314,-0.799988l-0.001343,-0.900024" id="svg_18" stroke-linecap="null" stroke-linejoin="null" stroke-dasharray="null" stroke-width="5" stroke="#000000" fill="none"/>
  <path d="m379,321c-0.352661,1.0625 -0.701111,1.986481 -0.87851,2.85733c-0.159882,0.784912 -0.12149,1.912018 -0.12149,2.663513c0,0.796478 0,1.793823 0,2.668488c0,1.010834 -0.000458,1.831512 0,2.496002c0.000671,0.997345 -0.123322,1.820587 0.166656,2.981323c0.17453,0.698578 0.677002,1.498047 0.833344,2.354187c0.178436,0.977081 0.453033,1.769592 0.647339,2.37915c0.314087,0.985352 0.298065,1.986023 0.705322,2.842834c0.38501,0.810028 0.671539,1.387817 0.902008,2.069183c0.381073,1.126556 0.595001,1.598053 1.042664,2.671997c0.241608,0.57962 0.493011,1.174469 1.021332,2.367981c0.509247,1.150421 0.759521,1.683167 1.215179,2.667511c0.208832,0.451172 0.613007,1.264618 0.894165,2.005829c0.450684,1.188202 0.503113,1.962402 0.738647,3.141327c0.158447,0.793091 0.334564,1.340363 0.634674,2.149353c0.37442,1.009338 0.719727,1.675171 1.198669,2.850647c0.20929,0.513641 0.488312,1.337738 0.799988,2.149353c0.385651,1.004303 0.693085,1.666565 1.200012,2.68399c0.394623,0.792023 0.685211,1.352814 1.295502,2.242828c0.525238,0.765961 0.831299,1.534088 1.204498,2.278015c0.470215,0.937317 0.494446,1.653778 0.5,2.721985c0.004456,0.857178 0.144653,1.587982 0.850677,2.157166c0.788513,0.635681 1.134399,1.30011 1.149323,2.200012c0.014923,0.900116 0.449341,1.664459 0.716003,2.370667c0.374542,0.991852 0.174835,1.811096 0.505341,2.886505c0.200226,0.651489 0.693329,1.626831 0.767975,2.317474l0.010681,0.940002" id="svg_22" stroke-linecap="null" stroke-linejoin="null" stroke-dasharray="null" stroke-width="5" stroke="#000000" fill="none"/>
  <path d="m350,344c0,0.886658 0.08017,1.863007 -0.170654,2.601318c-0.287567,0.846344 -0.885376,1.394623 -1.34668,2.084015c-0.650055,0.971527 -0.871033,1.577637 -1.235321,2.590668c-0.136505,0.379547 -0.563141,1.691132 -0.917999,2.708984c-0.19397,0.556213 -0.408325,1.141693 -0.64801,1.755005c-0.252777,0.64682 -0.520691,1.328156 -1.181335,2.76001c-0.354584,0.768494 -0.749878,1.553772 -1.162506,2.358002c-0.420624,0.819824 -0.857086,1.64267 -1.297516,2.466003c-0.437897,0.818665 -0.87677,1.622131 -1.706665,3.175995c-0.391785,0.733612 -0.759766,1.436829 -1.114502,2.101501c-0.334717,0.627258 -0.650909,1.214081 -0.961487,1.750488c-0.286194,0.494415 -1.03244,1.7146 -1.795654,2.322998c-0.575806,0.459015 -1.467896,1.19809 -1.704498,1.749176c-0.268524,0.625488 -0.54599,1.698669 -0.857178,2.753998c-0.193878,0.657501 -0.43222,1.570709 -0.899994,2.488495c-0.350983,0.688629 -1.211456,1.348694 -1.642853,2.033356c-0.47287,0.750519 -0.357147,1.783997 -0.357147,2.47464l0,0.940002" id="svg_23" stroke-linecap="null" stroke-linejoin="null" stroke-dasharray="null" stroke-width="5" stroke="#000000" fill="none"/>
  <path d="m515,324c1.020874,0 2.187012,-0.395935 2.878662,0.221497c0.619263,0.552795 0.76532,1.417145 1.442688,2.099823c0.502014,0.506012 1.194641,1.194672 1.925964,1.926025c0.50531,0.50531 1.257629,1.220551 1.752686,1.794312c0.539551,0.625427 1.115723,1.641144 1.374634,2.173004c0.377625,0.775696 0.911011,1.685364 1.64624,2.264496c0.555298,0.437439 1.405212,0.985413 2,1.604187c0.455994,0.474457 1.153809,1.411194 1.663086,2.168671c0.550171,0.818176 0.812622,1.250244 1.363403,2.089996c0.266968,0.407074 1.017578,1.504211 1.705994,2.349976c0.392456,0.482239 1.112793,1.287201 1.610657,2.108002c0.35553,0.58609 0.829407,1.605469 1.156799,2.220856c0.356018,0.669098 0.963989,1.660522 1.293884,2.193817c0.478516,0.773621 0.979248,1.835327 1.271973,2.472015c0.510559,1.110535 0.971375,1.671326 1.41333,2.313324c0.442017,0.641998 1.145142,1.444183 1.391968,2.302673c0.283142,0.984314 -0.099548,2.014832 0.544067,2.635986c0.605286,0.584229 1.343079,0.863617 1.885132,1.604187c0.514771,0.703369 1.028931,1.482819 1.34552,2.290497c0.351196,0.896057 0.403809,1.763062 1.038635,2.409485c0.641052,0.652771 1.116882,1.275574 1.305359,2.157166c0.201233,0.941498 0.904297,1.587402 0.987976,2.399994c0.092224,0.895294 0.001343,1.835999 0.001343,2.684021c0,0.863312 0,1.75882 0,2.716003c0,0.899994 0,1.799988 0,2.599976c0,0.900024 0,1.800018 0,2.700012c0,0.899994 0,1.804504 0,2.666656c0,0.833344 0,1.811829 0,2.632019l0,0.901337" id="svg_24" stroke-linecap="null" stroke-linejoin="null" stroke-dasharray="null" stroke-width="5" stroke="#000000" fill="none"/>
  <path d="m502,357c-1,0 -1.818665,0.055786 -2.520844,0.520844c-0.823822,0.545624 -1.56366,0.903656 -2.3125,1.645813c-0.596069,0.590729 -0.920349,1.338226 -1.141327,2.218689c-0.235474,0.938141 -0.350189,1.631805 -0.635986,2.363983c-0.440399,1.128204 -0.910736,1.714966 -1.489502,2.571838c-0.437134,0.647186 -1.089539,1.294098 -1.878998,1.678833c-0.80481,0.392212 -0.95874,1.240784 -1.24234,2.199829c-0.236725,0.800568 -0.809662,1.611511 -1.25766,2.279327c-0.469208,0.699402 -0.276611,1.752991 -0.80484,2.436829c-0.484711,0.627502 -0.640167,1.407593 -0.88266,2.250671c-0.195618,0.680084 -0.666687,1.666687 -0.822662,2.422668l-0.031525,0.910675l-0.331818,0.799988l-0.525848,0.800018" id="svg_26" stroke-linecap="null" stroke-linejoin="null" stroke-dasharray="null" stroke-width="5" stroke="#000000" fill="none"/>
  <path d="m625,248c0,-1.020828 0,-1.978668 0,-2.884003c0,-0.94133 0,-1.632004 0,-2.595169c0,-0.920822 0,-1.820831 0,-2.720825c0,-0.900009 0,-1.800003 0,-2.600006c0,-0.899994 0,-1.800003 0,-2.699997c0,-0.899994 0,-1.800003 0,-2.70134c0,-0.965332 -0.056274,-1.800293 0.000183,-2.776993c0.042725,-0.738678 0.857117,-1.029327 1.599792,-1.632339c0.760193,-0.617233 1.278503,-1.381302 1.398682,-2.189331c0.118164,-0.794617 0.758484,-1.432648 1.296021,-1.899994c0.793091,-0.689606 1.531311,-1.013168 2.137329,-1.46933c0.808655,-0.608688 0.608032,-1.761261 1.214661,-2.420013c0.573059,-0.62233 1.525574,-0.726639 2.184021,-1.610657c0.518311,-0.695877 0.873474,-1.44368 1.669312,-1.800003c0.799622,-0.358002 1.5,-1.000015 2.099976,-1.600006c0.604004,-0.604004 1.107056,-1.108948 1.900024,-1.899994c0.552673,-0.551331 1.178162,-1.174606 1.859985,-1.787994c0.335083,-0.301453 1.272888,-1.113831 2.125671,-1.49234c0.876465,-0.389008 1.720825,-0.653015 2.314331,-1.070328c0.80896,-0.568787 1.598755,-1.017792 2.544006,-1.164001c0.594116,-0.091904 1.741638,-0.203323 2.66217,-0.337997c0.484741,-0.070923 1.455933,-0.2258 2.372498,-0.363342c1.113525,-0.167099 2.058655,-0.273575 2.954651,-0.283997c0.676453,-0.007858 1.718506,0 2.745178,0c0.685486,0 1.520203,0 2.521484,0c0.800049,0 1.798706,-0.004684 2.564026,0c1.101379,0.00676 1.826538,0.14856 2.669312,0.5c0.795959,0.331909 1.694885,0.783661 2.166687,1.020828c0.939697,0.472351 1.394653,0.687088 2.49353,1.336502c0.801575,0.473709 1.515625,0.969574 2.50647,1.475998c0.894165,0.457031 1.418152,0.676575 1.952026,0.938675c1.100464,0.540253 1.646057,0.81369 2.143982,1.130661c1.315674,0.83754 1.891602,1.487366 2.362305,2.097336c0.455811,0.590622 1.190552,1.520554 1.876343,2.097336c0.362427,0.30481 1.149536,0.853943 1.897522,1.388336c0.940857,0.67218 1.58374,1.343201 1.770508,2.216995c0.164368,0.768784 0.565308,1.565338 0.997314,2.297333c0.432007,0.731995 0.860046,1.699249 1.082642,2.38266c0.311768,0.957214 0.727112,1.627579 1.306702,2.481339c0.496399,0.73114 0.610657,1.636002 0.610657,2.393173c0,0.895493 -0.17334,1.778366 0.020813,2.722c0.178406,0.867218 0.918274,1.614716 0.979187,2.520828c0.05365,0.798203 0,1.699997 0,2.600006c0,0.899994 0,1.799988 0,2.699997c0,0.901337 0,1.866669 0,2.52533c0,1.007996 0.365173,1.967514 -0.036011,2.738663c-0.395081,0.759415 -0.963318,1.237335 -0.963989,2.136002c-0.000671,0.936005 0.107605,1.798035 -0.05719,2.647339c-0.179626,0.92572 -0.832031,1.643127 -0.941467,2.452667c-0.12085,0.893768 -0.686829,1.622574 -0.944153,2.5c-0.253784,0.865463 -0.213013,1.866562 -0.818848,2.400009c-0.660767,0.581757 -1.475464,0.898621 -2.238342,1.466644c-0.613708,0.457001 -1.387573,1.117615 -1.830688,1.948029c-0.445801,0.835449 -0.56842,1.594543 -1.169312,2.364502c-0.489563,0.627258 -1.5,0.520813 -2.400024,0.520813c-0.899963,0 -1.803772,-0.082123 -2.699951,0.000183c-0.911438,0.083679 -1.437195,0.746765 -2.300049,0.963806c-0.873474,0.219757 -1.799988,0.036011 -2.699951,0.036011c-0.900024,0 -1.785339,0 -2.736023,0c-0.76532,0 -1.771667,-0.087128 -2.506836,0.057159c-0.929565,0.182434 -1.750488,0.880707 -2.54248,0.941498c-0.947876,0.072815 -1.716003,0.001343 -2.710205,0.001343c-0.747314,0 -1.779175,0 -2.72583,0c-0.67865,0 -1.673706,0.106384 -2.562622,-0.085327c-0.803894,-0.173401 -1.564697,-0.625031 -2.537354,-0.793152c-0.796753,-0.137756 -1.626099,-0.107513 -2.657166,-0.121674c-0.900818,-0.01239 -1.926575,-0.150909 -2.521484,-0.352509c-0.807495,-0.273651 -1.803528,-0.540192 -2.600037,-0.672668c-1.004883,-0.167114 -1.872986,-0.363586 -2.557312,-1.074493c-0.512756,-0.532715 -1.28418,-0.88974 -2.242676,-0.900177c-0.799927,-0.008698 -1.599976,0 -2.599976,0c-0.800049,0 -1.800049,0.000122 -2.600037,0c-1,-0.000153 -1.849304,0.092438 -2.799988,-0.333313c-0.640808,-0.287018 -1.283264,-1.059357 -2.114685,-1.497375c-0.837769,-0.441345 -1.445679,-0.822937 -2.185303,-1.464813c-0.666687,-0.578613 -1.479919,-0.697083 -2.352661,-1.061676c-0.716675,-0.299377 -1.59021,-0.94281 -2.145996,-1.44281l-0.612,-0.610672" id="svg_29" stroke-linecap="null" stroke-linejoin="null" stroke-dasharray="null" stroke-width="5" stroke="#000000" fill="none"/>
  <path stroke="#000000" d="m189,214.834839c1,0 1.757172,0 2.657166,0c0.944168,0 1.947327,0 2.578827,0c1.185333,0 1.989334,0 2.81134,0c1.031006,0 1.705994,0 2.786011,0c0.755981,0 1.736237,0.068298 2.46666,-0.218857c0.799911,-0.314468 1.299561,-0.80426 2.185333,-0.9552c0.706711,-0.120438 1.712799,-0.190399 2.514664,-0.357864c0.997742,-0.208374 1.799454,-0.294617 2.600006,-0.305573c0.999741,-0.013672 1.800003,-0.000809 2.800003,-0.000809c0.799988,0 1.79982,0 2.579163,0c0.854172,0 1.716339,0 2.65683,0c0.849335,0 1.768509,0 2.762665,0c0.765335,0 1.717331,0 2.485336,0c0.951996,0 1.717331,0 2.711502,0c0.919159,0 1.768494,0 2.704498,0c0.899994,0 1.800003,0 2.699997,0c0.800003,0 1.700058,-0.006378 2.600006,0c0.900177,0.006378 1.677155,0.242386 2.56665,0.612762c0.629852,0.262283 1.514221,0.414948 1.812012,0.980438c0.276459,0.524994 0.021332,1.122604 0.021332,1.504974c0,0.611954 0,1.216751 0,1.654678c0,0.659958 0.009613,1.27887 -0.020828,1.668472c-0.044098,0.564194 -0.164886,1.121384 -0.415161,1.654175c-0.235275,0.500839 -0.651779,1.033585 -1.164001,1.492722c-0.48848,0.437836 -0.774216,0.910355 -1.598679,1.357895c-0.636246,0.345383 -0.947113,0.824051 -1.23732,1.228821c-0.341125,0.475769 -0.730576,0.970551 -1.200012,1.448578c-0.494965,0.504059 -1.00444,0.862213 -1.711334,1.31308c-0.620605,0.395828 -1.198593,0.792343 -1.952667,1.196533c-0.664429,0.35614 -1.455856,0.527664 -1.699997,1.057236c-0.267181,0.579544 -0.599731,0.952835 -1.5,1.212784c-0.790894,0.228348 -1.641373,0.472046 -2.300003,0.66423c-0.837784,0.244492 -1.055588,0.870529 -1.642822,1.235352c-0.628601,0.390533 -1.493546,0.650299 -2.146515,0.897095c-0.843369,0.318771 -1.347275,0.741943 -2.115158,0.877182c-0.860657,0.151596 -1.808685,0.0905 -2.695496,-0.003769c-0.835068,-0.088776 -1.485672,-0.536591 -2.08667,-0.904449c-0.555313,-0.339905 -1.201477,-0.734436 -1.934509,-1.185516c-0.528046,-0.324936 -1.072418,-0.652939 -1.568985,-0.996368c-0.893219,-0.617737 -1.396866,-1.025589 -1.721848,-1.511093c-0.33783,-0.504745 -0.551422,-1.045517 -1.089325,-1.401199c-0.672241,-0.444519 -1.328018,-0.915833 -1.998672,-1.173248c-0.738907,-0.283615 -1.552139,-0.592941 -1.842819,-1.00322c-0.376099,-0.530838 -0.224792,-1.12085 -0.378006,-1.609955c-0.18309,-0.584396 -1.320206,-0.741394 -1.693832,-1.168869c-0.455017,-0.520569 -0.626938,-0.984848 -1.118683,-1.39711c-0.44986,-0.377167 -0.486908,-1.062195 -0.967987,-1.387314c-0.701111,-0.473801 -1.153076,-0.816437 -1.203171,-1.35881c-0.044449,-0.481277 -0.760666,-0.802933 -1.495499,-1.147522c-0.774536,-0.36322 -1.272064,-0.683167 -1.889343,-1.151505c-0.601334,-0.456238 -0.610657,-1.041718 -0.610657,-1.593201l-0.166656,-0.510651" id="svg_30" stroke-linecap="null" stroke-linejoin="null" stroke-dasharray="null" stroke-width="5" fill="none"/>
  <path d="m211,237c0,1.041672 -0.053146,2.002518 0.010666,2.789337c0.085327,1.052124 0.617493,1.662994 0.867844,2.531998c0.238205,0.826874 0.125839,1.794678 0.12149,2.562668c-0.005341,0.941376 -0.125458,1.972916 -0.520844,2.615997c-0.526367,0.856125 -0.924362,1.535431 -1.479156,2.333328c-0.456924,0.65715 -1.298645,1.138 -2.199997,1.166672c-0.899368,0.02861 -1.469269,0.548508 -2.157166,0.942841c-0.823364,0.471985 -1.809494,0.057159 -2.642838,0.057159c-0.9785,0 -1.798676,0 -2.636002,0c-1.016663,0 -1.711334,0 -2.738663,0c-0.946671,0 -1.625336,0 -2.741333,0c-0.768005,0 -1.762024,0.133133 -2.399994,-0.17067c-0.981384,-0.467316 -1.244324,-1.31813 -2.084,-1.843994c-0.758316,-0.474899 -1.186722,-1.238022 -1.566666,-1.985336c-0.338287,-0.665359 -1.075317,-1.384827 -1.933167,-1.878662c-0.737488,-0.424545 -1.066833,-1.121338 -1.474854,-1.757339l-0.377151,-1.012161l-0.158005,-0.641998" id="svg_33" stroke-linecap="null" stroke-linejoin="null" stroke-dasharray="null" stroke-width="5" stroke="#000000" fill="none"/>
  <path d="m213,234c0,1.041672 -0.053146,2.002518 0.010666,2.789337c0.085327,1.052124 0.675247,1.61409 0.932175,2.510666c0.248413,0.866913 -0.140854,1.898636 0.341156,2.617325c0.442032,0.659103 0.670303,1.596237 1.425842,1.968338c0.731293,0.360168 1.820007,-0.174667 2.679504,0.125c0.754364,0.263016 1.342712,0.840759 2.127991,1.073334c1.004791,0.297592 1.736298,0.705017 2.582672,1.137329c0.655304,0.334732 1.535934,0.773331 2.38533,0.778671c0.725327,0.004547 1.714493,0 2.678665,0c0.950668,0 1.835999,0.001907 2.59317,0c0.891006,-0.002258 1.787216,-0.310776 2.410828,-0.716003c0.753723,-0.489792 1.854492,-0.443817 2.421326,-0.894669c0.774796,-0.616257 1.226944,-1.253677 1.374664,-2.225327c0.115158,-0.757416 0.040512,-1.759506 0.121353,-2.678665l0.339981,-0.849335" id="svg_37" stroke-linecap="null" stroke-linejoin="null" stroke-dasharray="null" stroke-width="5" stroke="#000000" fill="none"/>
  <path d="m204,249c0,1.020828 0,1.978668 0,2.884003c0,0.773163 0,1.717331 0,2.711502c0,0.74733 0,1.77916 0,2.725845c0,0.67865 0,1.657501 0,2.488495c0,0.959473 0,1.710968 0,2.507477c0,0.997345 0,1.872009 0,2.882507c0,0.779358 0,1.778687 0,2.598816c0,0.958527 0,1.858521 0,2.605865c0,0.994171 -0.000107,1.759491 0,2.838318c0.000092,0.856995 0.282349,1.714447 1.199997,1.757172c0.899033,0.04184 1.800003,0 2.600006,0c0.899994,0 1.800003,0 2.610657,0c0.910675,0 1.764008,0 2.70401,0c0.985336,0 2.109299,0.42569 2.718674,-0.166656c0.529709,-0.514923 0.166656,-1.669342 0.166656,-2.434662c0,-0.994171 0,-1.741516 0,-2.762695c0,-0.940491 0,-1.802643 0,-2.635986c0,-0.978668 0,-1.752655 0,-2.652649c0,-0.863342 0,-1.826538 0,-2.768677c0,-0.911987 0,-1.584015 0,-2.573334c0,-1.036011 0,-1.75351 0,-2.662506c0,-0.74733 0,-1.742828 0,-2.542831c0,-0.999832 0,-1.964005 0,-2.914673c0,-0.88533 0,-1.685333 0,-2.585327c0,-0.900009 0,-1.800003 0,-2.699997l0,-0.900009l0,-0.899994" id="svg_40" stroke-linecap="null" stroke-linejoin="null" stroke-dasharray="null" stroke-width="5" stroke="#000000" fill="none"/>
  <path d="m218,267c1.041656,0 2,0 2.789322,0c1.044022,0 1.836014,0 2.694687,0c0.863327,0 1.890762,-0.013916 2.837494,0.000183c0.699554,0.010376 1.670761,0.1922 2.457153,0.41449c0.969864,0.27417 1.221344,-0.581329 1.221344,-1.250671c0,-0.76532 0.329132,-2.077637 -0.166656,-2.830688c-0.417297,-0.633789 -1.574554,-0.876923 -1.797333,-1.733307c-0.226776,-0.871735 -0.036011,-1.801361 -0.036011,-2.766663c0,-0.669342 0,-1.434662 0,-2.43335c0,-0.799988 0.054535,-1.804367 -0.036011,-2.599991c-0.11496,-1.010345 -0.463989,-1.779175 -0.842484,-2.778503l-0.117004,-0.716995l-0.004501,-0.90451l0,-0.899994" id="svg_44" stroke-linecap="null" stroke-linejoin="null" stroke-dasharray="null" stroke-width="5" stroke="#000000" fill="none"/>
  <path d="m255,165c0.886673,0.085327 1.83902,0.429703 2.40451,0.704498c0.999603,0.485764 1.81955,0.86351 2.428833,1.462173c0.608124,0.597534 0.991272,1.417801 1.819305,2.076157c0.490448,0.389923 1.571564,0.862061 1.985687,1.457169c0.55957,0.804153 0.818085,1.681732 1.277679,2.498672c0.395264,0.702652 1.065979,1.236771 1.083984,2.101334c0.018738,0.899796 0,1.800003 0,2.699997c0,0.800003 -0.029388,1.757797 0.004517,2.657166c0.028198,0.748657 0.293823,1.737762 0.570129,2.542831c0.272949,0.795242 0.414917,1.778992 0.425354,2.633331c0.010498,0.862106 0,1.766678 0,2.666672c0,0.899994 0.183472,1.87677 -0.221497,2.599838c-0.412964,0.73735 -1.457275,0.885208 -2.078491,1.605499c-0.46521,0.539368 -1.229095,1.21698 -2,1.647324c-0.835938,0.466629 -1.500427,0.619431 -2.399994,0.647339c-0.944122,0.029282 -1.454315,0.91626 -2.300018,1c-0.796112,0.078827 -1.700073,0.010406 -2.600006,0c-0.900177,-0.010422 -1.713821,-0.342422 -2.399994,-1c-0.612625,-0.587112 -1.19548,-1.204544 -1.800003,-1.800003c-0.694855,-0.684433 -1.463959,-1.023483 -2.17067,-1.539993c-0.638046,-0.466324 -1.280594,-1.363617 -1.742661,-1.994675c-0.444305,-0.606796 -0.861923,-1.710632 -1.330338,-2.294662c-0.5112,-0.637375 -1.339523,-1.242538 -1.756332,-1.888c-0.476608,-0.738052 -0.928299,-1.666321 -1.369324,-2.282669c-0.528305,-0.738312 -1.651855,-1.14743 -1.821671,-1.899994c-0.19812,-0.877975 -0.009003,-1.800003 -0.009003,-2.699997c0,-0.90451 0,-1.766678 0,-2.620834c0,-0.979172 -0.24939,-1.845978 0.166672,-2.645844c0.435074,-0.836411 0.756897,-1.391479 1,-2.333328c0.205917,-0.797791 0.833435,-1.666473 1.533325,-2.048172c0.71077,-0.387634 1.444702,-0.991669 2.125336,-1.341156c0.979828,-0.503128 1.81488,-0.590988 2.658661,-0.894669c0.705063,-0.253754 1.628601,-0.672073 2.400009,-0.714676c0.939896,-0.05191 1.949326,-0.001328 2.811493,-0.001328l0.804504,0l0.899994,0" id="svg_46" stroke-linecap="null" stroke-linejoin="null" stroke-dasharray="null" stroke-width="5" stroke="#000000" fill="none"/>
  <path d="m182,167c1.041656,0 2,0 2.800003,0c0.800003,0 1.804489,-0.000076 2.657166,0c0.9655,0.000092 1.853699,0.005341 2.605499,0.035995c0.442139,0.018036 2.104172,0.128555 2.786499,0.185501c0.737686,0.061554 1.515244,0.133224 2.31749,0.214508c0.812759,0.082352 1.620453,0.170975 2.407516,0.268494c0.752945,0.093292 2.098785,0.264893 3.143158,0.495499c0.800186,0.176697 1.646927,0.499481 2.681335,0.998672c0.580643,0.280212 1.575851,0.711197 2.399994,0.800003c0.841324,0.090652 1.21434,0.852432 1.722168,1.501328c0.60054,0.767349 1.138855,1.322617 1.531845,2.199997c0.328018,0.732346 0.876251,1.616287 0.936661,2.47467c0.065994,0.937744 0.010666,1.825333 0.010666,2.625336c0,0.899994 -0.343063,1.878571 0.020844,2.679169c0.351456,0.773224 0.976898,1.225311 0.979156,2.120834c0.002258,0.899994 0.000671,1.799988 0,2.699997c-0.000671,0.899994 -0.18866,1.827988 -0.704498,2.399994c-0.655807,0.727203 -1.389374,1.23912 -2.295502,1.300003c-0.883347,0.059357 -1.825378,-0.007309 -2.515991,0c-0.984177,0.010422 -1.960785,0.301804 -2.658676,0.574661c-0.930984,0.363998 -1.825333,0.425339 -2.582489,0.425339c-0.895508,0 -1.758835,0 -2.722015,0c-0.920822,0 -1.820831,0 -2.720825,0c-0.900009,0 -1.800003,0 -2.600006,0c-0.899994,0 -1.800003,0.005264 -2.699997,0c-0.910721,-0.005341 -1.838226,-0.185822 -2.5,-0.520828c-0.857635,-0.434158 -1.466263,-0.992737 -2.20134,-1.679169c-0.546417,-0.510269 -1.358215,-0.893158 -2.088821,-1.5c-0.7285,-0.605087 -0.618958,-1.604736 -0.711182,-2.5c-0.083694,-0.812607 -0.799408,-1.453629 -0.977814,-2.320831c-0.194153,-0.943634 0.217514,-1.681931 -0.025345,-2.717499c-0.180344,-0.769012 -0.985077,-1.282318 -0.995499,-2.161667c-0.010666,-0.899948 0,-1.801346 0,-2.766678c0,-0.658661 0,-1.666656 0,-2.458664c0,-1.027328 0,-1.722 0.010666,-2.749329l0.210831,-0.946503l0.299332,-0.658005l0.579178,-0.777832" id="svg_48" stroke-linecap="null" stroke-linejoin="null" stroke-dasharray="null" stroke-width="5" stroke="#000000" fill="none"/>
  <path d="m185,148c-0.704498,-0.704498 -1.27153,-1.34108 -1.88533,-1.800003c-0.885941,-0.662399 -1.611832,-0.95546 -2.129333,-1.800003c-0.474792,-0.774841 -0.761871,-1.581512 -1.006165,-2.399994c-0.254532,-0.852829 -1.023849,-1.443726 -1.8125,-2c-0.548325,-0.386765 -1.165054,-1.167664 -1.577332,-1.835999c-0.472824,-0.766479 -1.062714,-1.57489 -1.610168,-2.164001c-0.568314,-0.611557 -1.383575,-1.39447 -1.768509,-1.800003c-0.561981,-0.592056 -1.30423,-1.614136 -1.710663,-2.179169c-0.632721,-0.879608 -1.351761,-1.361465 -1.847336,-1.773499c-0.814392,-0.677094 -1.100769,-1.550934 -1.952667,-2.137497c-0.713196,-0.491058 -1.401108,-0.81321 -2.099991,-1.509834c-0.600967,-0.599037 -1.228333,-1.216202 -1.700012,-1.921165c-0.532883,-0.796448 -1.13002,-1.457832 -1.785324,-1.846832c-0.807755,-0.4795 -1.291992,-1.014656 -2.09317,-1.810501c-0.612869,-0.608788 -1.261566,-1.18924 -1.721497,-1.778664c-0.660812,-0.846878 -0.832184,-1.791718 -1.699997,-2.170837c-0.827713,-0.361603 -1.817154,-0.338043 -2.400009,-0.873329c-0.629852,-0.578445 -1.362534,-1.205551 -2.02533,-1.598671c-0.686478,-0.407173 -1.550613,-1.022453 -2.143997,-1.485329c-0.787857,-0.614571 -1.546692,-1.122131 -2.082504,-1.462006c-1.017578,-0.645462 -1.723175,-0.980766 -2.461502,-1.451332c-0.878479,-0.559906 -1.486328,-1.20166 -2.08667,-1.801331c-0.59967,-0.598999 -1.427521,-1.159599 -2.099991,-1.452667c-0.866272,-0.377525 -1.62291,-1.044678 -2.300003,-1.447334c-0.835281,-0.496727 -1.488434,-1.056946 -2.333328,-1.5c-0.650146,-0.340927 -1.411514,-0.580223 -2.523666,-0.87883c-0.718918,-0.193031 -1.410187,-0.859009 -1.900177,-1.473c-0.525955,-0.659065 -1.265686,-1.092445 -2.076157,-1.64817c-0.687286,-0.47126 -1.468552,-1.136948 -2.166672,-1.479164c-0.813042,-0.398552 -1.60434,-0.519363 -2.310669,-0.604836c-1.118279,-0.13533 -2.123741,-0.274986 -2.683998,-0.362663c-0.589119,-0.092194 -1.81971,-0.306755 -2.442665,-0.440002c-1.232925,-0.263718 -1.82373,-0.420654 -2.943832,-0.765999c-0.538284,-0.165962 -1.561172,-0.522942 -2.052666,-0.694672c-1.398575,-0.48867 -2.280525,-0.769691 -3.130173,-1.027328c-0.415009,-0.125839 -1.241272,-0.350594 -2.435997,-0.792c-0.805679,-0.297668 -1.58532,-0.657776 -2.363998,-0.972c-0.746941,-0.301422 -1.810547,-0.644882 -2.496834,-0.751503c-1.066902,-0.165756 -1.880035,-0.183365 -2.805832,-0.276497c-1.074448,-0.108086 -1.657715,-0.188873 -2.26667,-0.269333c-0.629387,-0.083153 -1.927704,-0.26709 -2.586662,-0.365334c-1.313759,-0.195862 -1.958153,-0.300789 -3.222839,-0.494171c-0.620995,-0.094955 -1.235741,-0.187996 -1.846497,-0.268501c-1.208237,-0.159256 -2.410217,-0.275757 -3.010498,-0.314499c-1.194916,-0.077126 -1.789383,-0.091904 -2.964172,-0.110832c-0.578781,-0.009323 -1.150665,-0.009995 -2.813828,-0.010666c-0.531502,-0.000214 -1.543503,0 -2.467506,0c-0.811996,0 -1.768661,0 -2.711998,0c-0.942665,0 -1.853432,-0.013374 -2.764168,0.000168c-0.699562,0.010399 -1.698906,0.112808 -2.467827,0.435829c-0.748756,0.314545 -1.592857,0.966728 -2.094673,1.449333c-0.780548,0.750671 -1.224121,1.351128 -2.094666,1.872002c-0.728233,0.43573 -1.479759,0.84594 -2.232002,1.391998c-0.763748,0.554405 -1.625977,0.680717 -2.303993,1.018669c-0.827679,0.412552 -1.371319,1.292442 -2.152004,1.832001c-0.647289,0.447357 -1.487698,0.821945 -1.9375,1.041664c-0.970352,0.473991 -1.496887,0.709572 -2.5625,1.291672c-1.124664,0.614357 -1.674831,0.968285 -2.226665,1.317329c-0.546501,0.345673 -1.587101,1.037491 -2.066666,1.381332c-1.26638,0.907982 -1.919662,1.444221 -2.456669,1.926338c-0.472809,0.424477 -1.264557,1.261444 -1.883331,1.820328c-0.582947,0.526527 -1.608494,1.024361 -2.400002,1.272003c-0.809761,0.253357 -1.630169,0.762505 -2.085667,1.30117c-0.694462,0.821266 -1.244328,1.316917 -2.008999,1.757996c-0.732262,0.422379 -0.811108,1.418221 -1.566666,1.8395c-0.9128,0.508957 -1.328587,1.073814 -2.138668,1.717331c-0.60408,0.479874 -1.781067,0.403 -1.964001,1.205338c-0.162605,0.713188 0.092838,1.745148 -0.121334,2.642662c-0.212349,0.889877 -0.852531,1.57869 -0.91333,2.370667c-0.074402,0.969147 -0.001335,1.633507 -0.001335,2.757339c0,0.662666 0,1.706665 0,2.389328c0,1.197334 0,1.926338 0,2.968002c0,0.800003 0,1.600006 0,2.595505c0,0.919159 0,1.883667 0,2.709c0,1.016998 -0.006615,1.716339 0,2.695496c0.005333,0.789398 0.1772,1.828171 0.5,2.5c0.391716,0.815277 0.39109,1.780518 0.943001,2.478333c0.476006,0.601837 1.554394,0.870636 2.356998,0.996338c0.79771,0.124924 1.787224,0.399918 2.542835,0.672668c0.890995,0.321625 1.858498,0.352661 2.823833,0.352661c0.669331,0 1.833332,0 2.622665,0c0.725334,0 1.710667,0 2.694668,0c0.690666,0 1.763332,0 2.682667,0c0.833332,0 1.666664,0 2.528831,0c0.904499,0 1.804501,0 2.704502,0c0.899998,0 1.799999,0 2.699997,0c0.900002,0 1.700001,0 2.657169,0c0.899998,0 1.647579,0.020889 2.642834,-0.001328c0.800545,-0.017868 1.823479,-0.164688 2.579163,-0.519501c0.886536,-0.41626 1.505417,-1.057159 2.354172,-1.3125c0.657684,-0.197861 1.490906,-0.107559 2.5,-0.5c0.748589,-0.291138 1.312317,-0.911087 2.366829,-1.645004c0.588066,-0.409286 1.243835,-0.720901 2.221169,-0.90033c0.796402,-0.14621 1.63932,-0.106552 2.657333,-0.342667c0.937668,-0.217484 1.598076,-0.535034 2.609337,-0.695999c0.869652,-0.138428 1.540146,-0.150238 2.645332,-0.416c0.842995,-0.202713 1.717133,-0.517944 2.166664,-0.666672c0.894272,-0.295868 2.162315,-0.688354 2.928001,-0.830673c0.685989,-0.127518 1.618866,-0.151855 2.651001,-0.390823c0.729111,-0.168808 1.4814,-0.5047 2.420998,-0.778503c0.745827,-0.217331 1.566765,-0.39418 2.388,-0.600006c0.776062,-0.194504 1.956787,-0.630936 2.70533,-0.963989c0.874557,-0.38913 1.753998,-0.433746 2.770668,-0.436005c0.835999,-0.001846 1.751923,0.092834 2.521332,-0.085327c0.973839,-0.22551 1.648933,-0.574814 2.593834,-0.914673c0.844551,-0.303772 1.679688,-0.883011 2.356834,-0.964005c0.760696,-0.090988 1.770599,0.022095 2.564003,-0.093155c1.016045,-0.147583 1.820976,-0.579376 2.766663,-0.776169c0.772591,-0.160767 1.571968,-0.161331 2.690506,-0.166672c0.757492,-0.003616 1.795494,0 2.490166,0c1.027328,0 1.974167,0 2.6735,0c0.979164,0 1.779167,0 2.579163,0c1.008995,0 1.91433,0 3.042503,0c0.658325,0 1.33667,0 2.304169,0c0.998657,0 1.934662,0 2.878662,0c0.690674,0 1.674942,-0.02182 2.661331,0.001328c0.76059,0.017853 1.686218,0.141312 2.466003,0.355835c0.829391,0.228165 1.894333,0.612732 2.581161,0.942841c0.763992,0.367203 1.299576,1.210831 1.987,1.699997c0.701706,0.499329 1.641724,1.006866 2.304504,1.399994c0.686478,0.407166 1.442505,0.873886 2.174667,1.600006c0.584686,0.579865 0.790009,1.644348 1.520828,1.979172c0.809479,0.370865 1.835892,0.174072 2.458344,0.541656c0.835159,0.493195 1.226563,1.454391 1.59549,2.079178c0.501282,0.848953 1.134109,1.36142 1.942673,1.398666c0.961075,0.044266 1.719055,0.463257 2.482666,0.834656c0.753906,0.366684 1.48848,0.735092 2.321335,1.26651c0.655426,0.418198 1.689682,0.677414 2.374161,0.952835c0.863525,0.347458 1.425888,1.254898 2.104507,1.661987c0.735947,0.441483 1.699554,0.656097 2.115997,1.485336c0.426529,0.849365 0.848312,1.446106 1.473328,2.199997c0.545197,0.657623 0.628357,1.513367 1.057343,2.436005c0.274017,0.58934 0.859055,1.377533 1.378662,1.953339c0.671005,0.743561 1.412994,1.453491 1.888,2.009323l0.33934,0.901337" id="svg_50" stroke-linecap="null" stroke-linejoin="null" stroke-dasharray="null" stroke-width="5" stroke="#000000" fill="none"/>
  <path d="m283,155c0,-0.886673 0,-1.825333 0,-2.833328c0,-0.792007 0,-1.652008 0,-2.571167c0,-0.996841 0,-1.616333 0,-2.762177c0,-0.785995 0,-1.608002 0,-2.666656c0,-0.709503 0,-1.562164 0,-2.565338c0,-0.765335 0,-1.857666 0,-2.656006c0,-0.99733 -0.000061,-1.621323 0,-2.587326c0.000092,-1.093674 -0.049286,-1.835693 0.221344,-2.679337c0.282135,-0.87944 0.520782,-1.886993 1,-2.557495c0.503693,-0.704727 0.733307,-1.35936 1,-2.320999c0.221191,-0.797562 0.678986,-1.623566 0.77417,-2.495674c0.087311,-0.800148 0.509583,-1.658867 0.883331,-2.404663c0.375092,-0.748451 0.861908,-1.530365 1.270477,-2.110504c0.668549,-0.949287 0.687378,-1.851898 1.184021,-2.622665c0.401398,-0.622986 1.174469,-1.31086 1.772003,-1.809494c0.626404,-0.522728 1.631439,-0.591972 2.062653,-1.243835c0.51767,-0.782532 1.026794,-1.27877 1.810333,-2.091835c0.582123,-0.604057 0.942261,-1.46199 1.542511,-2.042336c0.627625,-0.606812 1.016754,-1.207893 1.679169,-2.093834c0.458923,-0.6138 1.241913,-1.251366 1.67865,-1.985161c0.466675,-0.784088 1.32074,-1.003548 1.989349,-1.389503c0.75116,-0.433594 1.635559,-1.340569 1.996002,-1.717331c0.391907,-0.409637 1.211975,-1.32 1.635986,-1.793335c0.424011,-0.473335 1.227722,-1.399879 2,-2.166664c0.631866,-0.627365 1.219086,-1.092255 2.058014,-1.682335c0.936584,-0.658768 1.30896,-0.91143 2.104492,-1.513504c0.42569,-0.322166 1.296539,-0.998734 1.736664,-1.336662c1.264771,-0.971062 1.649902,-1.269562 2.395508,-1.786499c0.697754,-0.483765 1.395966,-0.933365 2.538666,-1.514336c0.827179,-0.420547 1.278564,-0.605667 2.208313,-1c0.478455,-0.202919 1.460754,-0.600571 2.458344,-1c0.997101,-0.399239 1.490265,-0.597359 2.458344,-0.979164c0.926636,-0.365456 1.368286,-0.542786 2.598999,-0.999504c0.735718,-0.273026 1.444336,-0.516731 2.510651,-0.905334c0.766571,-0.279358 1.610413,-0.596222 2.536011,-0.983994c0.502258,-0.210419 1.580048,-0.700836 2.154663,-0.989334c1.249237,-0.627197 1.906708,-1.005409 2.598663,-1.394669c0.719391,-0.404694 1.459045,-0.828156 2.226013,-1.248001c0.782349,-0.428261 1.579559,-0.858009 2.405975,-1.248001c1.662384,-0.784492 2.530121,-1.098473 3.40802,-1.402664c0.89679,-0.31073 1.833984,-0.596924 2.811005,-0.890999c1.025635,-0.308708 2.11322,-0.622406 3.260986,-0.981003c2.536438,-0.79245 3.924805,-1.279495 5.390656,-1.798668c1.529266,-0.541634 3.099945,-1.116196 4.702515,-1.699501c1.617432,-0.588707 3.231934,-1.181648 4.837494,-1.744499c3.094208,-1.084709 4.569366,-1.557907 5.997345,-1.994667c1.388489,-0.424683 2.759277,-0.814278 4.123505,-1.177498c1.365143,-0.363464 2.750702,-0.708412 4.168488,-1.042503c2.97403,-0.700821 4.559143,-1.044174 6.197327,-1.401329c1.676819,-0.365585 3.37912,-0.72699 5.092499,-1.077003c1.706635,-0.34864 3.393188,-0.684555 5.047516,-0.987c3.136597,-0.573433 4.59964,-0.796959 5.985321,-0.998665c1.311768,-0.190941 2.556854,-0.351952 3.738007,-0.4935c1.120209,-0.134247 2.185333,-0.248962 3.197998,-0.358498c1.885345,-0.203934 2.765503,-0.302433 3.605347,-0.402668c0.80014,-0.095497 1.559998,-0.190674 2.279999,-0.280502c0.679993,-0.084839 1.319641,-0.166584 1.919983,-0.2355c1.079437,-0.123913 1.560547,-0.167747 2.006683,-0.198666c0.415588,-0.028801 0.806641,-0.045105 1.17749,-0.044998c0.355865,0.000099 0.702271,0.012714 1.042511,0.044998c0.688202,0.065296 1.042236,0.130959 1.405334,0.200001c0.37265,0.070858 0.751678,0.155945 1.135498,0.255001c0.39093,0.100883 0.785706,0.213661 1.180481,0.344997c0.80307,0.267174 1.199707,0.431755 1.597351,0.597336c0.398041,0.165756 0.791077,0.340393 1.180481,0.515999c0.385284,0.173744 0.762817,0.349205 1.135498,0.515999c0.717072,0.320946 1.062988,0.464256 1.398682,0.598671c0.324341,0.129868 0.639771,0.249878 0.945007,0.364494c0.2948,0.110695 0.580536,0.214897 0.85498,0.319504c0.521057,0.198601 0.765808,0.299057 0.998688,0.401329c0.222809,0.097847 0.432343,0.196777 0.625488,0.300003c0.181488,0.096992 0.348816,0.19281 0.490509,0.300003c0.248322,0.187866 0.333466,0.297028 0.403992,0.399994c0.066681,0.097359 0.11734,0.200005 0.167999,0.300003c0.050659,0.099998 0.098938,0.204315 0.167999,0.300003c0.151886,0.210403 0.244781,0.350182 0.852844,0.679161c0.779572,0.421761 1.617462,0.573517 2.063171,1.322166c0.415955,0.698685 0.887329,1.497314 0.915985,2.398666c0.028625,0.899712 0.07608,1.688698 0.425323,2.636002c0.283203,0.768135 0.542053,1.762764 0.57019,2.564003c0.035095,0.999397 0.01767,1.800087 0.004333,2.799835c-0.010406,0.779533 -0.080383,1.691193 -0.610504,2.389496c-0.514313,0.677444 -1.152954,1.161453 -1.873352,1.896004c-0.520691,0.53093 -1.074341,1.08638 -1.75882,2.110161c-0.370056,0.553467 -1.027924,1.470558 -1.399994,2.100006c-0.48291,0.816956 -0.993073,1.36396 -1.441193,2.105827c-0.426056,0.705299 -1.227325,1.317795 -1.630646,1.998672c-0.48996,0.827156 -0.795441,1.697327 -1.585327,2.151833c-0.690979,0.397606 -1.141632,1.138824 -1.866669,1.8815c-0.44635,0.457222 -1.245728,0.846962 -2.230682,1.366661c-0.736725,0.388718 -1.262756,1.185143 -1.936005,1.633339c-0.705261,0.469498 -1.270355,0.8367 -1.749329,1.598663c-0.444977,0.707909 -1.555145,0.514839 -2.401337,0.570671c-0.868622,0.057312 -1.606964,0.585503 -2.105316,1.14666c-0.679535,0.76516 -1.660065,0.704788 -2.510834,1.072006c-0.718933,0.31031 -1.5625,0.692421 -2.304352,0.831329c-1.002319,0.187683 -1.806,0.471535 -2.426147,1.146004c-0.619507,0.673759 -1.319305,1.18013 -2.054688,1.517334c-0.733612,0.33638 -1.567841,0.300201 -2.514648,0.851997c-0.638763,0.372284 -1.154877,0.9786 -2.195496,1.322166c-0.891785,0.294426 -1.758911,0.608109 -2.37384,0.825836c-1.004791,0.355766 -1.826752,0.244873 -2.864014,0.450661c-0.733368,0.145493 -1.453766,0.477097 -2.666656,0.833336c-0.746277,0.2192 -1.575256,0.392899 -2,0.479164c-0.840607,0.170731 -2.337646,0.38903 -2.946503,0.477173c-0.867859,0.125641 -1.503784,0.263748 -2.63916,0.707832c-0.945618,0.369865 -1.43692,0.622673 -1.955994,0.856667c-1.061859,0.478691 -1.581604,0.741104 -3.115021,1.336166c-0.466705,0.181107 -1.348877,0.474518 -2.149994,0.721664c-0.719025,0.221825 -1.92865,0.628044 -2.776672,0.942169c-0.649139,0.240456 -1.915802,0.648804 -2.445831,0.800667c-0.583252,0.167107 -1.216919,0.341148 -2.616669,0.699333c-0.753387,0.192787 -1.537872,0.385582 -2.347504,0.580498c-1.672363,0.402618 -2.527527,0.599892 -3.389313,0.797333c-0.865204,0.198219 -1.731598,0.392532 -2.596497,0.580498c-0.8591,0.186699 -1.710205,0.367569 -2.551514,0.5355c-1.634491,0.326256 -2.425659,0.465034 -3.194672,0.601334c-0.746643,0.132332 -1.471069,0.256424 -2.170502,0.384003c-0.675232,0.123169 -1.325775,0.243004 -1.945496,0.384003c-1.162933,0.264587 -1.699677,0.421638 -2.69165,0.768661c-0.472321,0.165237 -1.366486,0.533813 -2.248352,0.863335c-0.880981,0.329193 -1.799072,0.607231 -2.733337,0.848c-0.463409,0.119423 -1.378967,0.317299 -2.651978,0.636002c-0.764832,0.191483 -1.463898,0.39193 -2.424347,0.699997c-0.911469,0.292358 -1.818909,0.601852 -2.450653,0.820831c-0.673645,0.233505 -1.790741,0.648331 -2.631683,0.963165c-0.918976,0.344055 -1.405792,0.528915 -2.449982,0.863342c-0.547882,0.175476 -1.708282,0.493469 -2.319336,0.631332c-1.259277,0.284119 -1.90802,0.395996 -2.557343,0.521332c-0.649323,0.125336 -1.936584,0.364761 -3.166656,0.666672c-0.592529,0.145432 -1.715576,0.482666 -2.250671,0.658661c-0.52124,0.171432 -1.511932,0.5354 -2.916016,1.007996c-0.44342,0.149246 -1.297302,0.416962 -2.104156,0.625c-0.740906,0.19104 -2.019562,0.419861 -2.790497,0.516342c-0.869385,0.108795 -1.859833,0.398209 -2.614838,0.672668c-0.891602,0.324112 -1.709259,0.659393 -2.414337,1c-0.846527,0.408936 -1.914154,0.284637 -2.233826,1.057159c-0.342834,0.828506 -0.439911,1.692093 -0.924988,2.494171c-0.450897,0.745529 -1.296417,0.877579 -2.063171,1.322159c-0.839203,0.486572 -1.154572,1.320587 -1.871521,1.879166c-0.556671,0.433685 -1.186096,1.261688 -1.853821,1.652679c-0.803284,0.470367 -1.645233,0.713013 -2.434174,0.972656c-0.858673,0.282608 -1.647797,0.698074 -2.293335,1.05867c-0.799622,0.446655 -0.886902,1.589142 -1.272491,2.263336c-0.453278,0.792542 -1.027344,1.378082 -1.952667,1.599991c-0.733917,0.17601 -1.799835,0.228073 -2.470825,0.663345c-0.859619,0.557632 -1.398407,1.199051 -2.070679,1.674667c-0.780273,0.552017 -0.967987,1.547989 -1.801331,1.881332l-0.563995,0.444l-0.436005,0.889328l-0.352661,0.800003" id="svg_52" stroke-linecap="null" stroke-linejoin="null" stroke-dasharray="null" stroke-width="5" stroke="#000000" fill="none"/>
 </g>
</svg>